<svg width="175" height="57" viewBox="0 0 175 57" fill="none" xmlns="http://www.w3.org/2000/svg">
<path id="Vector 635" d="M0.372813 37.8219C-0.427121 39.2729 0.100635 41.0976 1.55159 41.8975C3.00255 42.6974 4.82725 42.1697 5.62719 40.7187L0.372813 37.8219ZM162.1 56.8618C163.68 57.3589 165.365 56.4807 165.862 54.9002L173.963 29.1443C174.46 27.5638 173.582 25.8795 172.002 25.3824C170.421 24.8852 168.737 25.7634 168.24 27.344L161.038 50.2381L138.144 43.0367C136.564 42.5395 134.88 43.4178 134.382 44.9983C133.885 46.5788 134.763 48.2631 136.344 48.7602L162.1 56.8618ZM5.62719 40.7187C9.80521 33.1404 18.8454 25.119 31.069 18.6555C43.2251 12.2277 58.2289 7.50443 73.9695 6.30042C105.321 3.90233 139.502 15.4244 160.34 55.3871L165.66 52.6129C143.535 10.1814 106.852 -2.23226 73.5119 0.317897C56.9069 1.58802 41.1082 6.55989 28.2643 13.3514C15.4879 20.1072 5.33059 28.8293 0.372813 37.8219L5.62719 40.7187Z" fill="url(#paint0_linear_180_194)"/>
<defs>
<linearGradient id="paint0_linear_180_194" x1="64" y1="3.00001" x2="-5.5" y2="44.5" gradientUnits="userSpaceOnUse">
<stop stop-color="white"/>
<stop offset="1" stop-color="white" stop-opacity="0"/>
</linearGradient>
</defs>
</svg>
