<svg width="179" height="50" viewBox="0 0 179 50" fill="none" xmlns="http://www.w3.org/2000/svg">
<path id="Vector 636" d="M178.5 17.3657C179.416 15.9848 179.039 14.1231 177.658 13.2076C176.277 12.292 174.415 12.6693 173.5 14.0502L178.5 17.3657ZM10.6703 0.0758362C9.0553 -0.294346 7.44601 0.71476 7.07584 2.32973L1.04341 28.6472C0.673233 30.2622 1.68234 31.8715 3.2973 32.2416C4.91228 32.6118 6.52156 31.6027 6.89174 29.9878L12.2539 6.59443L35.6472 11.9566C37.2622 12.3268 38.8715 11.3177 39.2417 9.70269C39.6118 8.08772 38.6027 6.47844 36.9877 6.10826L10.6703 0.0758362ZM173.5 14.0502C169.224 20.4995 159.877 27.4282 147.126 33.0351C134.473 38.5987 118.838 42.6948 102.416 43.7393C69.5714 45.8285 34.0642 35.7297 12.5417 1.40625L7.45836 4.59375C30.5098 41.3555 68.5243 51.9072 102.797 49.7272C119.934 48.6372 136.256 44.3689 149.541 38.5276C162.727 32.7296 173.298 25.2129 178.5 17.3657L173.5 14.0502Z" fill="url(#paint0_linear_180_196)"/>
<defs>
<linearGradient id="paint0_linear_180_196" x1="112.712" y1="47" x2="177.251" y2="0.656781" gradientUnits="userSpaceOnUse">
<stop stop-color="white"/>
<stop offset="1" stop-color="white" stop-opacity="0"/>
</linearGradient>
</defs>
</svg>
