<svg width="26" height="31" viewBox="0 0 26 31" fill="none" xmlns="http://www.w3.org/2000/svg">
<path d="M18.9731 5H1.17188C0.525625 5 0 5.52562 0 6.17188V29.8281C0 30.4744 0.525625 31 1.17188 31H18.9731C19.6187 31 20.1444 30.4744 20.1444 29.8281V6.17188C20.1444 5.52562 19.6187 5 18.9731 5ZM15 21.5H5.5C4.9475 21.5 4.5 21.0525 4.5 20.5C4.5 19.9475 4.9475 19.5 5.5 19.5H15C15.5525 19.5 16 19.9475 16 20.5C16 21.0525 15.5525 21.5 15 21.5ZM15 17.5H5.5C4.9475 17.5 4.5 17.0525 4.5 16.5C4.5 15.9475 4.9475 15.5 5.5 15.5H15C15.5525 15.5 16 15.9475 16 16.5C16 17.0525 15.5525 17.5 15 17.5ZM15 13.5H5.5C4.9475 13.5 4.5 13.0525 4.5 12.5C4.5 11.9475 4.9475 11.5 5.5 11.5H15C15.5525 11.5 16 11.9475 16 12.5C16 13.0525 15.5525 13.5 15 13.5Z" fill="#20A9E3"/>
<path d="M25.4998 3V25C25.4998 26.51 24.2848 28 22.1442 28V6.17188C22.1442 4.4225 20.7217 3 18.973 3H3.35547C3.35547 1.34563 4.78109 0 6.53297 0H22.3223C24.0742 0 25.4998 1.34563 25.4998 3Z" fill="#20A9E3"/>
</svg>
