<svg width="31" height="31" viewBox="0 0 31 31" fill="none" xmlns="http://www.w3.org/2000/svg">
<path d="M31 15.5175L28.3468 12.0575L28.9403 7.75874L24.8908 6.15107L23.2849 2.09696L18.991 2.69109L15.5 0L12.0439 2.65614L7.75 2.06201L6.14414 6.11612L2.09459 7.72379L2.68806 12.0225L0 15.5175L2.65315 18.9775L2.05968 23.2762L6.10923 24.8839L7.71509 28.938L12.009 28.3439L15.4651 31L18.9212 28.3439L23.2151 28.938L24.8209 24.8839L28.8705 23.2413L28.277 18.9425L31 15.5175ZM14.2432 20.5502L9.07658 16.2864L10.1937 14.9233L14.0338 18.0688L20.5968 10.4848L21.9234 11.6381L14.2432 20.5502Z" fill="#20A9E3"/>
</svg>
